<?xml version="1.0" standalone="no"?>
<!DOCTYPE svg PUBLIC "-//W3C//DTD SVG 20010904//EN"
 "http://www.w3.org/TR/2001/REC-SVG-20010904/DTD/svg10.dtd">
<svg version="1.0" xmlns="http://www.w3.org/2000/svg"
 width="3072.000000pt" height="3072.000000pt" viewBox="0 0 3072.000000 3072.000000"
 preserveAspectRatio="xMidYMid meet">
<metadata>
Created by potrace 1.11, written by Peter Selinger 2001-2013
</metadata>
<g transform="translate(0.000000,3072.000000) scale(0.100000,-0.100000)"
fill="#000000" stroke="none">
<path d="M0 15360 l0 -15360 15360 0 15360 0 0 15360 0 15360 -15360 0 -15360
0 0 -15360z m9980 9785 c1082 -109 2065 -524 2921 -1235 160 -134 535 -509
669 -670 963 -1159 1394 -2606 1210 -4070 -128 -1023 -554 -1985 -1240 -2800
-142 -169 -486 -514 -645 -646 -848 -706 -1821 -1124 -2885 -1240 -198 -21
-684 -29 -885 -15 -855 63 -1634 308 -2360 744 -395 237 -721 493 -1055 827
-204 203 -335 353 -500 571 -843 1116 -1218 2494 -1050 3858 218 1764 1331
3331 2939 4135 643 322 1303 503 2031 556 174 12 664 4 850 -15z m15455 -1321
c299 -70 545 -204 745 -404 524 -526 574 -1369 116 -1954 -251 -320 -619 -519
-1027 -556 -90 -8 -1245 -10 -4214 -8 -3913 3 -4094 4 -4185 21 -623 120
-1088 587 -1196 1202 -23 132 -23 375 0 502 37 209 118 409 234 582 114 170
312 351 495 454 151 85 360 155 522 176 41 5 1816 8 4245 7 l4175 -1 90 -21z
m-90 -5104 c423 -61 818 -314 1039 -668 86 -138 161 -326 198 -495 29 -136 32
-416 5 -552 -41 -210 -115 -390 -232 -565 -226 -339 -608 -577 -1011 -630 -67
-8 -1134 -10 -4269 -8 l-4180 4 -86 21 c-289 72 -524 201 -718 393 -355 351
-508 860 -406 1353 75 365 304 702 620 914 150 101 375 191 555 223 101 18
257 18 4260 19 2706 0 4179 -3 4225 -9z m-80 -5100 c266 -26 478 -101 700
-247 126 -84 308 -264 387 -383 115 -175 199 -379 235 -570 24 -131 24 -410
-1 -535 -60 -305 -192 -552 -410 -771 -235 -235 -507 -373 -825 -419 -95 -14
-1162 -15 -10041 -13 l-9935 3 -90 21 c-289 68 -516 190 -717 382 -126 121
-211 234 -287 381 -106 206 -157 393 -168 612 -40 786 545 1463 1327 1538 124
12 19702 13 19825 1z m142 -5123 c298 -62 542 -189 754 -394 221 -214 364
-478 425 -788 25 -125 25 -415 0 -540 -40 -202 -117 -390 -227 -556 -81 -120
-244 -288 -361 -372 -169 -121 -392 -215 -598 -254 -91 -17 -520 -18 -10040
-18 -9419 0 -9950 1 -10037 17 -296 56 -548 187 -764 395 -221 214 -364 478
-425 788 -25 125 -25 415 0 540 58 291 185 539 384 747 193 200 402 327 669
403 197 57 -531 53 10213 51 9334 -2 9930 -3 10007 -19z"/>
<path d="M9382 23655 c-105 -23 -195 -93 -243 -188 -18 -34 -318 -962 -700
-2159 l-50 -157 -1237 -3 -1237 -3 -67 -23 c-138 -46 -211 -149 -212 -298 -1
-73 2 -86 36 -155 22 -45 61 -100 95 -136 40 -42 352 -273 998 -739 517 -372
946 -683 953 -689 12 -11 -50 -197 -359 -1081 -205 -588 -379 -1096 -386
-1129 -23 -110 -12 -237 27 -315 53 -102 176 -184 296 -196 70 -7 180 9 239
35 23 10 457 319 965 686 509 368 936 675 950 683 25 15 42 3 960 -659 514
-370 958 -685 985 -700 147 -80 349 -58 470 52 99 91 134 213 106 370 -6 35
-180 554 -386 1154 -206 599 -371 1092 -367 1096 4 4 432 314 952 689 645 465
965 701 1007 745 107 110 151 239 124 365 -24 109 -98 186 -221 227 -52 17
-124 18 -1290 21 l-1236 3 -363 1137 c-200 625 -375 1159 -389 1185 -77 144
-252 220 -420 182z"/>
</g>
</svg>
